<svg preserveAspectRatio="none" overflow="visible" style="display: block;" width="297.81" height="297.81" viewBox="0 0 297.81 297.81" fill="none" xmlns="http://www.w3.org/2000/svg">
<g id="cube-02">
<path id="Icon" d="M148.905 31.0219V148.905M148.905 148.905L254.38 90.3073M148.905 148.905L43.4306 90.3073M148.905 148.905V266.788M254.38 207.502L158.547 154.262C155.028 152.307 153.268 151.329 151.405 150.946C149.756 150.607 148.055 150.607 146.405 150.946C144.542 151.329 142.782 152.307 139.263 154.262L43.4306 207.502M260.584 199.267V98.5435C260.584 94.2917 260.584 92.1658 259.957 90.2698C259.403 88.5924 258.497 87.0527 257.3 85.7536C255.947 84.2852 254.089 83.2528 250.372 81.1879L158.547 30.1742C155.028 28.2191 153.268 27.2415 151.405 26.8583C149.756 26.5191 148.055 26.5191 146.405 26.8583C144.542 27.2415 142.782 28.2191 139.263 30.1742L47.4383 81.188C43.7216 83.2528 41.8632 84.2852 40.51 85.7536C39.3129 87.0527 38.4069 88.5924 37.8527 90.2698C37.2263 92.1658 37.2263 94.2917 37.2263 98.5435V199.267C37.2263 203.518 37.2263 205.644 37.8527 207.54C38.4069 209.218 39.3129 210.757 40.51 212.057C41.8632 213.525 43.7216 214.557 47.4383 216.622L139.263 267.636C142.782 269.591 144.542 270.569 146.405 270.952C148.055 271.291 149.756 271.291 151.405 270.952C153.268 270.569 155.028 269.591 158.547 267.636L250.372 216.622C254.089 214.557 255.947 213.525 257.3 212.057C258.497 210.757 259.403 209.218 259.957 207.54C260.584 205.644 260.584 203.518 260.584 199.267Z" stroke="#B3DBDB" stroke-opacity="0.3" stroke-width="2" stroke-linecap="round" stroke-linejoin="round"/>
</g>
</svg>
